<svg xmlns="http://www.w3.org/2000/svg" version="1.1" xmlns:xlink="http://www.w3.org/1999/xlink" width="512" height="512" x="0" y="0" viewBox="0 0 64 64" xml:space="preserve"><g><path d="M56 60.5H8A4.505 4.505 0 0 1 3.5 56V8c0-2.481 2.019-4.5 4.5-4.5h48c2.481 0 4.5 2.019 4.5 4.5v48c0 2.481-2.019 4.5-4.5 4.5zM8 6.5c-.827 0-1.5.673-1.5 1.5v48c0 .827.673 1.5 1.5 1.5h48c.827 0 1.5-.673 1.5-1.5V8c0-.827-.673-1.5-1.5-1.5z" fill="#000000" opacity="1" data-original="#000000"></path><path d="M23.278 25.096H11a1.5 1.5 0 0 1-1.5-1.5V11A1.5 1.5 0 0 1 11 9.5h16.894c.49 0 .949.239 1.229.641.281.401.348.915.179 1.375l-4.615 12.596a1.5 1.5 0 0 1-1.408.984zm-10.778-3h9.73l3.516-9.596H12.5zM53 9.5H34.022a1.5 1.5 0 0 0-1.418 1.011l-4.341 12.596a1.501 1.501 0 0 0 1.418 1.989h23.318a1.5 1.5 0 0 0 1.5-1.5V11a1.5 1.5 0 0 0-1.5-1.5zM39.319 42.287h-7.915a1.5 1.5 0 0 1-1.5-1.5v-11.66a1.5 1.5 0 0 1 1.5-1.5h7.915a1.5 1.5 0 0 1 1.5 1.5v11.66a1.5 1.5 0 0 1-1.5 1.5zm-6.415-3h4.915v-8.66h-4.915zM53 42.287h-7.915a1.5 1.5 0 0 1-1.5-1.5v-11.66a1.5 1.5 0 0 1 1.5-1.5H53a1.5 1.5 0 0 1 1.5 1.5v11.66a1.5 1.5 0 0 1-1.5 1.5zm-6.415-3H51.5v-8.66h-4.915zM25.639 42.287H11a1.5 1.5 0 0 1-1.5-1.5v-11.66a1.5 1.5 0 0 1 1.5-1.5h14.639a1.5 1.5 0 0 1 1.5 1.5v11.66a1.5 1.5 0 0 1-1.5 1.5zm-13.139-3h11.639v-8.66H12.5zM53 54.5H11A1.5 1.5 0 0 1 9.5 53v-6.681a1.5 1.5 0 0 1 1.5-1.5h42a1.5 1.5 0 0 1 1.5 1.5V53a1.5 1.5 0 0 1-1.5 1.5zm-40.5-3h39v-3.681h-39z" fill="#000000" opacity="1" data-original="#000000"></path></g></svg>