<?xml version="1.0" encoding="UTF-8"?>
<svg id="Livello_1" data-name="Livello 1" xmlns="http://www.w3.org/2000/svg" viewBox="0 0 1441.07 1361.67">
  <defs>
    <style>
      .cls-1 {
        stroke-width: 0px;
      }
    </style>
  </defs>
  <path class="cls-1" d="m1437.95,616.77c-.6-3.6-1.5-10.3-2.1-15-2.6-20.3-3.9-27.3-5.2-28.6-1-1-12.8-1.4-54.3-2.1-46.1-.7-53-1-53-2.3,0-1.1,3.3-2.4,11.3-4.7,11.3-3.2,17.4-4,74.7-9.9,8.3-.8,15.6-1.7,16.3-1.9,1.7-.6,1.5-4.7-.8-14-1.5-5.9-2.7-8.6-4.7-10.4l-2.7-2.3-42.7.7c-23.6.4-48.3.4-54.9,0-11.8-.7-12.3-.8-15.8-3.9l-3.5-3.1-44.1-.6c-24.3-.4-44.9-1-45.8-1.4-1-.4-1.8-1.3-1.8-2,0-1.8-.7-1.6,31-7.9,15.1-3.1,31.6-6.5,36.5-7.6,5-1.1,14.2-2.3,20.5-2.7l11.5-.6,9-9.5c10.1-10.6,17.1-15.7,28.3-20.9,11.8-5.4,24.2-7.7,39.9-7.6,16.4.2,16.2.4,10.2-14-9.1-22-19.5-45.5-23.6-53.2-.8-1.7-4.3-8.2-7.6-14.5-19.7-37.6-50-82.8-77.1-114.9-3.9-4.6-8.7-10.3-10.6-12.6-6.2-7.5-24-26.8-30.9-33.5-17.5-16.9-39.3-37-45.5-42-3.8-3-9-7.3-11.5-9.6-2.5-2.2-6.6-5.5-9.1-7.4-2.5-1.9-4.7-3.7-5-4-.5-.6-17.2-12.7-27.4-19.8-16.7-11.8-48.9-32-64.1-40.3-5.7-3.2-21-11.2-26.5-14-19.8-10-65.6-29.9-68.9-29.9-.4,0-3.5-1.2-6.7-2.6-3.2-1.4-10.8-4.1-16.8-6.1-6.1-1.9-12.7-4.1-14.6-4.8-7.8-2.9-20-6.6-28-8.5-4.7-1.1-10.7-2.6-13.5-3.4-40.5-11.2-94-19.5-145.5-22.6-13.9-.8-64.2-1.1-81-.3-18.4.8-63.9,5.6-78.5,8.2-2.7.5-9.5,1.7-15,2.6-14.1,2.3-22.6,4-41.5,8.7-9.1,2.2-19,4.6-22,5.3-3,.8-7.5,1.9-10,2.5-6.4,1.5-29.6,8.9-35.2,11.1-2.6,1.1-5.2,1.9-5.8,1.9s-3.9,1.1-7.3,2.4c-3.4,1.3-11.1,4.3-17.2,6.6-43.3,16.5-94.3,42.3-128.5,65-4.7,3.1-9.4,5.9-10.4,6.3-2.2.9-11.5,7.4-33.8,24-11.24,8.29-15.27,11.67-20.07,12.19-.94,1.13-1.88,2.24-2.84,3.35-.36.51-.72,1.03-1.09,1.53-.08.27-.16.54-.24.81-.24,1.02-.46,2.04-.67,3.07,1.24-.43,1.74-.02,3.21,1.25,3.2,2.9,5.6,9.1,6.4,16.5,1,9.9,3.4,24.1,4.7,27.5,1.7,4.7,8.8,11.5,14.6,14.1,4.6,2.1,5.6,3.1,7.7,7.7,3.4,7.4,4.6,17.4,4.3,37.2-.3,18.5,1,25.8,5.7,34,2,3.4,2.3,5.2,2.2,12.5-.2,7.4.1,9.1,2.2,12.8,2.4,4.1,2.4,4.3.7,6-1.7,1.6-1.9,1.5-4.7-1.7-1.7-2.1-4.1-7.3-5.8-12.8-1.7-5.1-4.4-11.9-6.1-15.2-3.3-6.7-9.8-14.1-12.3-14.1-2.1,0-6,5.2-8.8,11.6-2.5,5.8-5.6,9.4-7.9,9.4-1,0-2.9,1.8-4.4,4.1-3.4,5-5.8,4.9-6.7-.4-1-6.1-2.1-6.4-7.6-1.5-2.7,2.4-6.5,5-8.4,5.7-1.9.7-6.5,2.6-10.3,4.2-11.2,4.7-21.6,3.7-21.6-2.1,0-1,7.9-9.8,17.9-20,12.1-12.2,18.4-19.3,19.1-21.6.7-1.9,2.3-4.8,3.6-6.3,1.4-1.6,3.1-5.1,3.9-7.8,1.3-4.4,1.3-5-.5-8.3-4.5-8.4-5-10.2-6-23.2-.5-7.3-1.4-14.9-2-16.8-.5-1.9-1-4.6-1-6,0-3.3-6.1-13.4-8.3-13.8-1-.2-3.3,1-5.3,2.7-3,2.7-4.2,3.1-9.1,3.1h-5.7l-11,11.3c-17.9,18.4-42.3,46-52.1,59.1-2.2,2.9-7.2,9.5-11.1,14.7-12.9,17-41.4,60-41.4,62.4,0,.3-1.5,2.8-3.4,5.7-4.5,7.2-20.1,37.5-27.1,52.8-3.1,6.9-6.5,14.3-7.5,16.5s-2.1,5.4-2.5,7.2c-.8,3.9.7,4.9,8.6,5.9,3,.4,8.5,1.8,12.3,3,17,5.8,29.1,15.7,39.8,32.8,3.8,6,9.7,25.3,10.9,35.3,1.3,12.7,1.8,14.5,4.7,17.5,2.4,2.6,3,2.8,11.1,2.7,4.7,0,14.3-1,21.3-2.2l12.7-2.2,5.8-5.1c8.7-7.6,13.1-10,20.9-11.4,6-1.1,8.2-1,14.5.3,13,2.6,27.8,11,40.5,22.8,8.9,8.2,10.8,9,26.9,10.5,7.7.7,19,2,25,2.8,6.1.8,15.7,2,21.5,2.6,39,3.9,42,4.3,42,6.1,0,2.1-10.2,2.7-48.2,2.9-22.3.1-46.4.5-53.5,1-40.6,2.8-45,3.3-58.1,6.7-5.5,1.4-6.7,2.2-10.5,6.8-5.3,6.7-14.2,12.7-23.3,16-10.1,3.5-24,3.5-37.9-.1-10.4-2.7-27.3-10.1-34.9-15.4-5.5-3.7-9.7-3.9-16.3-.6-6.4,3.2-10,4.7-21.8,9.6-16.2,6.6-22.5,9.8-22.5,11.6,0,.9,2,3.9,4.5,6.7,6.6,7.5,5.6,11.7-2.7,11.7-1.8,0-7.6.6-12.8,1.5-5.2.8-12.5,1.7-16.2,2.1-10,.8-11,2-12,13.5-.4,5.2-1.1,25.8-1.4,45.9-.5,29.5-.3,39.5,1,52.4.9,8.8,1.6,18.7,1.6,22.1s.7,10.2,1.5,15c.9,4.8,2,12.4,2.5,16.9,1.2,11.5,7.2,41.2,12.1,60.6,5.8,23.4,9.5,35.9,12.5,42.8.8,1.8,1.4,4,1.4,5,.1.9.9,3.5,2,5.7s1.9,4.7,2,5.5c0,.8,1.1,4.2,2.4,7.5,1.4,3.3,5,12.3,8,20,9.2,23.3,30.8,68.6,35.1,73.5.7.8,2.7,4.4,4.5,8,1.8,3.6,4.9,9,6.8,12,2,3,6.3,9.8,9.7,15.2,16.3,26,21.1,32,33,41,3.3,2.5,7.9,6.7,10.3,9.3l4.3,4.8,6.7-.6c11.7-.9,29.7,2.2,40.2,7,16.9,7.8,25.2,16.4,27.4,28.4.5,2.7,1.3,3.8,2.9,4.3,1.2.3,17.5.6,36.3.6,36.9,0,53.1,1.4,65.4,5.6,4.3,1.5-3.3,2.4-20.5,2.4-10.4,0-23.9.5-30,1-6,.5-13.7,1.1-17,1.4-3.3.3-14.1,1-24,1.6-9.9.6-20.7,1.5-24.1,2.1-3.3.5-8.2.9-10.8.9-8.8,0-10.9,3-5.4,7.7,1.7,1.6,9.9,9.4,18.2,17.5,8.3,8,16.5,15.6,18.1,16.9,1.7,1.2,4.6,3.7,6.6,5.6l3.6,3.4,16.9,1.4c9.3.8,23.7,2,31.9,2.5,8.3.6,23.6,1.7,34,2.6,10.5.8,22.5,1.4,26.8,1.4s13.3.7,20,1.5c19.7,2.3,40.2,3.5,61,3.5s28.7.6,28.7,2.1c0,1.3-8.3,4.6-14.2,5.7-2.9.6-11.3,1.4-18.7,1.7l-13.4.6-5.6,5.7c-6.9,6.9-12.6,9-25.6,9.4-8.5.3-9.4.5-14.5,3.9-9.2,6-27.4,10.9-40.6,10.9-7.5,0-9.5,1-7.3,3.6,1.4,1.7,16.4,10.9,29.4,17.9,5.1,2.7,9.9,5.5,10.6,6.1.8.6,6.4,3.5,12.4,6.4,6.1,3,12.1,6.1,13.5,7,1.4.9,7.5,3.8,13.5,6.5,6.1,2.6,13.5,5.9,16.5,7.2,9.2,4.2,11.2,5,20.5,8.8,5,2,16.7,6.4,26,9.7,41.3,14.7,91.4,27.9,120.7,31.8,3.7.5,9.7,1.6,13.3,2.5,8,1.8,12.9,1.9,14.2.3.6-.7,1.3-5.4,1.7-10.3.3-5,1-12.8,1.6-17.5.5-4.7,1.2-18.4,1.6-30.5.6-21.1.5-22.5-2-34.4-1.8-8.7-2.6-15.4-2.6-22.8,0-12.3.8-14.3,10.5-26.2,3.5-4.3,6.7-9,7-10.4.5-1.7-.5-5.1-3-10.8-4.6-10.5-6.6-13-11.3-13.9-6.4-1.4-10.4-3.3-18.7-9-11.6-8-15.1-9.4-22.9-8.8-6.9.6-10.8,2.5-24.1,11.8-14.7,10.3-25.2,9.3-31.7-3-3.3-6.3-4.2-7-8.4-7-3.7,0-16.7-4.1-22.7-7.1-6.4-3.2-14.2-11.9-18.2-20.4-4.1-8.6-6.3-10.5-12.5-10.5-5.7,0-17.5-4-26.2-8.8-20.4-11.2-19.4-10.2-22.3-21.7-8.4-32.7-2.8-74.9,13.3-100.9,5.2-8.3,7.5-9.8,17.4-10.8,15.5-1.6,45.9-2.1,57.8-.9,23.6,2.4,35.3,4.5,50.4,9,9.1,2.7,10.6,2,10.6-5.3,0-4.8.3-5.7,3.3-8.3,1.8-1.5,7-4.8,11.5-7.2,10.9-5.6,11.5-6.9,7.1-15.7-2.4-4.7-4.9-7.9-8.4-10.7-4.9-3.9-15.7-9.8-20.5-11.2-1.4-.4-6.2-2.5-10.8-4.8-8.5-4.1-15.3-10.3-17.4-15.7-2.6-6.5-.4-15.6,9.3-39,9-21.8,13-40.1,11-51.2-2.3-13.4-.9-30.5,3.7-43.4,5.2-14.7,15.7-29.7,27.4-39,3.6-3,6.9-6.2,7.3-7.3.7-2.2-12-21.8-16.3-25.2-3-2.3-3.5-2.3-23.7.5-42,5.7-54.7,8.2-69,13.4-8.6,3.1-33.8,15.3-36.4,17.6-.9.7-3.2,2.1-5.1,3.1-5.8,2.9-16.7,10.3-32.7,22.2-8.4,6.2-15.7,11.3-16.3,11.3-3.6,0,2.6-8.7,12.6-17.6,19.4-17.3,26.1-22.9,32.3-26.8,12-7.7,22.4-13.2,32.1-17.1,5.2-2,9.7-3.9,10-4.1.9-.9-2.5-2.4-5.6-2.4-3.7,0-6.1-2.2-4.2-3.7,5.4-4.1,7.6-4.3,42-4.3,31-.1,33.9-.2,42.3-2.3,11-2.7,11.4-3.7,5.9-13-5.8-9.6-17.4-26.7-25.7-38.2-2.4-3.3-8-10.9-12.3-16.9s-10.3-13.6-13.3-17c-10.6-12.2-11.7-20-3.6-27.5,5.5-5.1,11.3-6.8,16.4-4.9,4.4,1.7,9.1,7.6,21.3,26.8,24.7,38.9,33.1,50.8,36.5,51.6,1.8.5,4.4-.2,8.7-2.4,9-4.6,24.4-13,29.6-16.1,2.5-1.4,6.1-3.5,8-4.5,3.9-2,10.5-6.7,22.5-16,8.9-6.9,9.3-8.8,2.3-9.6-7.9-1-7.7-2.5.7-5.8,2.8-1.1,10.1-4,16.3-6.6,29.8-12.1,60.4-14.5,82.6-6.4,15.4,5.6,30.2,19.1,38,34.6,3.9,7.7,10.5,27.8,12.1,36.6,2.2,12.1,3.4,15.8,6.3,19,3.1,3.2,11.1,8.6,15.9,10.5,3.8,1.5,8.6,6.7,12.5,13.3,2.5,4.3,9.8,10.4,21.6,18.1,5.5,3.6,15.3,13.4,17.2,17.2.8,1.7,2.2,4.1,3.1,5.5,2.7,4.2,5.7,15,6.9,25.5,1.5,12.4.8,45.5-1.5,68.5-1.9,19.5-3.4,47.4-2.7,52.1.2,1.9,2.4,7.6,4.8,12.8,7.8,16.6,6.5,19.5-12.1,26.5-20.5,7.9-26.4,12.4-28.5,21.7-.7,3-1,7-.8,8.9.3,3.1.9,3.8,5.8,6.2,12.6,6.2,15,5.6,50-12.9,8.5-4.5,19.1-9.3,23.5-10.6,21.5-6.6,21.9-6.7,41-6.7,16.5,0,18.6.2,26,2.6,10.6,3.4,23.6,9.6,31,14.9,11.9,8.5,16.7,15.4,24,35,2,5.5,5.5,13.6,7.8,18,10.6,20.7,10.1,19.1,10.2,29.8v9.7l-6.6,6.3c-5.9,5.6-7.5,8.1-13.9,21.1-5.6,11.3-8.3,15.6-11.6,18.4-5.2,4.6-13.5,8.9-21.7,11.2-34.4,9.8-38.2,12.1-50.5,30.5-4.3,6.3-7.9,10.7-10.1,11.9-4.4,2.5-18.4,3.4-26.2,1.6-27.4-6.1-27.2-6.1-33.1-5-6.3,1.2-14,5.8-26.4,15.6-4.9,3.9-15.5,11.4-23.5,16.7-7.9,5.3-16.1,11.3-18.3,13.4-5.5,5.4-5.1,7.4,6.1,31.1,1.9,4,4.3,10.7,5.4,14.8l2,7.6-2.5,7.2c-5,14.3-6,24.9-5.9,62.6,0,38.5.7,44.6,5,45.6,2.8.7,7.9.2,17.3-1.9,3.6-.8,9.6-1.8,13.4-2.2,3.8-.4,8.7-1.3,10.9-2.1,2.2-.8,5.4-1.4,7.1-1.4,1.8,0,6.6-.8,10.7-1.9,4.1-1,10.1-2.4,13.4-3.1s6.8-1.8,7.9-2.3c1-.5,4.2-1.3,7-1.8,4.6-.7,8.5-1.7,24.1-6.3,9.3-2.7,24-7.4,36-11.7,20.7-7.2,21.7-7.6,33-12.4,6.1-2.6,12.6-5.3,14.5-5.9,7.9-2.7,52.5-24.7,69-34.1,23.9-13.5,58-35.5,78-50.4,24.4-18,63.9-52.2,79.9-69,2.4-2.5,7.9-8.2,12.1-12.6,8-8.4,26.2-29,34.3-39.1,2.6-3.2,6.7-8.4,9.2-11.4,10.7-13.2,26.8-35.9,37-52,14-22.1,22.3-36.5,31.2-53.8,4.6-9,5.6-11.6,4.7-13-1-1.5-5.1-1.8-43.5-2.9-23.3-.7-53-1.7-65.9-2.2-12.9-.5-37.5-1-54.7-1-30.6-.1-36.9-.7-36.1-3.4.5-1.4,4-2.2,16.8-3.7,5.2-.6,13.5-1.5,18.4-2.1,5-.6,10.7-1.9,12.8-3,6.6-3.3,20.9-8.9,23.2-8.9,1.1-.1,3.9-.7,6.1-1.5s7.8-2,12.5-2.6c7-.9,9.8-.8,15.8.5,8.7,1.8,10.1,1.4,18-5.2,3.2-2.6,7.6-5.9,9.8-7.2,2.1-1.3,6.9-4.3,10.6-6.7,12.2-8,32.1-16.3,49.8-20.9,3.8-.9,12.9-1.9,21.7-2.3,12.1-.5,15.6-1,16.9-2.2,1.5-1.6,6.8-15.8,8.5-22.9.4-1.9,2.2-8,3.9-13.5s3.7-12.9,4.5-16.5c.7-3.6,2-9,2.8-12,3.2-12,10.7-52.1,10.7-56.7,0-1.8.9-9,2-16,5.1-32.4,5.7-112.2,1.1-143.3ZM426.45,294.77c-.46.17-.99.32-1.56.45,1.92-1.01,3.79-2.11,5.61-3.28-1.66,1.41-3.09,2.45-4.06,2.83Zm101.5-81.4c-14.3-9.7-24.2-9.3-31.5,1.2-2.7,3.9-3,5.3-4,18.5l-1.1,14.2-3.6,1.7c-4.5,2.1-5.4,5.6-4.4,16.4l.7,7.4-4.7,2c-8.6,3.7-9.6,2.5-7.1-8.8,3-14.5,3.7-21.9,2.6-29-4-24.3-11-33.3-26.8-33.8-7.2-.3-10.2-1.4-10.2-4,0-2.3-1.9-2.6-6.8-1-5.5,1.8-13.5,7.2-25.3,17-10.9,8.9-17.8,12.4-21.3,10.8-3.7-1.6-3.3-4.8.6-6.8,1.8-.9,11.4-9.6,21.3-19.3,22.8-22.3,30.3-26.7,42.9-25.5,2.7.3,6.4,1.1,8.2,1.9,11.5,4.8,20.5,21,22.4,40.5.9,9,2.5,14,4.6,14,1.8,0,2.4-2.5,2.4-10.5,0-6,.5-8.2,2.8-12.5,3.7-7.3,8.1-9.5,18.2-9.5,6.6.1,8.3.5,13.9,3.5,6.1,3.3,13.1,10.5,13.1,13.6,0,2.1-1.3,1.7-6.9-2Zm113.2-86.3c-1.9,1.6-16.4,7.5-25.3,10.2-3,.9-7.3,2.4-9.5,3.5-4.6,2.1-12.4,4.6-17.5,5.6-4,.8-12.9,5.2-13.1,6.5-.5,2.9-.1,3.4,3.1,3.9,2.9.4,3.5.9,3.5,3s-.5,2.6-4.5,3c-5.9.7-6.3,3.6-.8,6.2,2,1,4,2.3,4.4,2.9,1,1.7-2.4,3.9-6,3.9-1.7.1-4.2.7-5.6,1.5-3.6,2-8.7,1.9-9.9-.3-.5-.9-1.4-6.3-1.9-12-.8-7.9-1.8-11.8-4.1-16.7-3.5-7.5-6.6-9.8-15.2-11.4-12.2-2.1-23.2-9.4-24.6-16.3-.4-2.1-1.5-3.3-4-4.3-4.7-2-12.3-8.4-12.3-10.5,0-4.5,5.5-4.1,10.3.8,2,2,4.1,5.2,4.8,7,.6,1.9,1.8,3.2,2.8,3.2.9,0,4.8,1.5,8.7,3.4,10.1,4.8,34.4,12.6,39.4,12.6,1.5,0,4.5.6,6.6,1.4,8.6,3,17.7,3.8,25.1,2.3,3.8-.8,7.9-1.9,9-2.5,5.8-3.2,32.9-12.2,36.6-12.2,1,0,1.7.8,1.7,1.8,0,1.1-.8,2.6-1.7,3.5Zm210.9,1076.4c-.37.01-.7.02-1.05.02-.27-.14-.53-.29-.8-.43-.14-.07-2.71-1.72-2.84-.84.2-1.35,2.68-.21,2.96-.08.7.33,1.36.8,1.98,1.34-.08,0-.17,0-.25,0Zm7.16-7.04c-.47-.43-.98-.84-1.49-1.22,1.13.39,2.12.97,2.83,1.76.42.5,1.05,1.4,1.78,2.52-1.02-1.05-2.05-2.08-3.12-3.05Zm15.88-834.46c.22-.2.43-.4.65-.59-.05,1.89-.3,3.9-.71,5.59.02-1.67.04-3.33.06-5Zm-97.23-131.51c1.4.6,4.8,1.3,7.5,1.7,2.8.4,7.3,1.1,10,1.6,18.6,3.4,16.4,3.5,26.2-1.3,7.1-3.6,25.3-12.4,26-12.6.1-.1.8.2,1.7.5,3.8,1.4,1.1,4.5-8.4,9.4-11.8,6.3-21.8,12.7-25.2,16.1-2,2.1-4.7,6.7-6,10.1-2.1,5.4-2.8,6.3-5.4,6.9-3.7.7-7.4-.5-7.4-2.5,0-.8,1.4-2.4,3-3.6,2.1-1.5,3-3,3-4.8,0-5.6-3.9-8.4-17-12.2-4.1-1.2-9.3-3-11.5-4s-5-2.1-6.2-2.5c-2.5-.7-3.1-4-.9-4.8,1.4-.6,6.4.4,10.6,2Zm-48-150.4c-4.1,4.3-7,4.6-7,.5,0-3.4,5.9-11.9,9.8-14.1,6.9-4.1,11.8-4.1,18.7-.2,5.2,3,15.5,12.9,15.5,14.9,0,2.7-4.7,1.9-11.1-1.9-12-7-19-6.8-25.9.8Zm158.5,391.5c-1.3-1.3.4-3.8,3.2-5,10.6-4.3,16.3-7.4,19.6-10.6,4.1-4,4.6-6.8,2.1-10.7-1.2-1.9-1.4-3.1-.6-5.2,1.3-3.9,0-6.7-5-10.4-6.4-4.6-10.2-6.3-24.9-11.4-14.3-4.9-14.9-5.1-48.4-14.3-27.4-7.6-31.2-8.7-53.5-16.4-10.7-3.6-20.5-8.8-20.5-10.8,0-3.2,16.2-.7,39.5,6.1,19.2,5.5,22.4,6.6,36,11.3,17.5,6.2,35,11.6,37.3,11.6,1,0,5.3-2,9.5-4.4,9-5.1,14.3-6.7,21.9-6.7,6.7,0,10.7.8,15.5,3.2,5.2,2.7,6.7,2.4,13.1-2.1,4.9-3.5,22.6-13,24.3-13,.3,0,2-.6,3.7-1.4,7.6-3.4,13-5.6,13.9-5.6,1.6,0,22.6-10.8,27.1-13.9,10.5-7.3,22.6-23.4,25-33.2.9-3.7,4.6-8.1,6.6-7.7,1.3.3,1.5,1.4,1.3,5-.3,5,1.2,6.8,5.8,6.8,2.5,0,3.5,2.2,2.1,4.8-.6,1.1-4.5,4.8-8.7,8.3-16.1,13.4-22.6,19.3-24,22-.8,1.5-1.4,5.2-1.4,8.2,0,3.2-.5,5.9-1.2,6.4s-4.2,2-7.7,3.2c-3.4,1.3-10.5,4.2-15.5,6.6-5.1,2.4-14.2,5.9-20.2,7.9-13.3,4.4-15,5.5-15.9,10.3-.9,5.2-3.4,9-7.1,11.3l-3.2,1.8v19.4c0,10.6-.5,23.7-1,29.1-.9,9.6-1,9.9-4.8,13.8-2.5,2.5-4.6,3.9-5.9,3.7-2.2-.3-2.4-2.1-1-9.5.6-3.7.5-4.2-1.6-5.4-1.5-.8-8.4-1.5-18.6-1.8-8.9-.3-16.5-.9-16.8-1.3Zm114.23-39.3c-.15.08-.3.16-.45.26-.13.08-.25.16-.38.24-.15-1.76-.38-3.52-.7-5.29.58,1.07,1.13,2.49,1.4,3.78.06.32.1.66.13,1Zm-28.23,61.5c0,.1-.01.18-.02.27-.09-.03-.18-.06-.27-.09-.11-.37-.25-.71-.42-1.04.17-.23.32-.47.48-.71.21.37.22.87.22,1.57Zm23,199c-1.5,1.3-2,1-4.4-1.8-1.4-1.8-3.3-3.2-4.3-3.2-1.8,0-11.6,7.7-16,12.5-1.5,1.6-3.7,5.4-4.9,8.3q-2.2,5.3-5.8,4.7c-2.9-.5-4.1-.2-5.5,1.4-1.6,1.8-1.7,2.7-.7,8.4,1.7,9.9,1.4,28.8-.5,31.5-2.7,3.9-5.7,2.8-9.8-3.6-2-3.2-5.2-7.4-7.2-9.3-4.8-4.6-6.5-8.1-5.8-11.8.7-3.5-1.7-8.1-4.2-8.1s-8.7,3.6-11.8,6.9c-3.2,3.4-5.7,3.9-7.6,1.6-1.8-2.2,1.7-7.6,6.3-9.7,5.2-2.5,9.5-7.2,15.5-17.1,2.9-4.8,7-10.5,9.1-12.7,3.5-3.6,4.2-4,8.9-4,9,0,15.7-3.3,24.2-12,10.8-11.1,15.9-13.2,21.3-9,2.1,1.6,2.6,3.1,3.1,8.7.3,3.8.9,9.1,1.2,11.9.4,4,.2,5.3-1.1,6.4Zm80.2-106.5c-3.4,9.5-8.5,15.1-10,11.1-.3-.8.1-4.9.8-9.3,1.9-10.4,1.8-14.9-.4-26.9-2.3-12.9-7.6-23.4-14-27.9-4.1-2.8-4.8-3-14.2-3h-9.9l-2-3.3c-1.1-1.7-2.6-3.2-3.3-3.2-2.3,0-10.4,5.9-15.9,11.6-9,9.3-20.2,18-25.2,19.4-4.6,1.2-7.6.9-7.6-.9,0-1.2,10.9-14.1,11.9-14.1.4,0,2.3-2.1,4.1-4.8,5.3-7.5,22-23.5,28.2-26.9,6.9-3.9,16.2-7.2,20.4-7.3,1.7,0,4.8,1.2,7,2.6,14.5,9.7,22,22.5,30.6,52.6,1.9,6.4,1.5,24.6-.5,30.3Z"/>
  <path class="cls-1" d="m600.55,694.37c-5.5,3.7-6,5.9-2.9,11.9,1.5,2.7,3.4,6.1,4.4,7.4s1.8,3.2,1.8,4.2c0,3.5,6.6,5.2,9,2.3,1.1-1.3.8-2.6-2-8.3-2.8-5.9-3.2-7.6-2.8-12.1.4-3.7.1-5.5-.9-6.6-1.9-1.9-2.2-1.8-6.6,1.2Z"/>
  <path class="cls-1" d="m709.45,1169.47c-7.4.2-13.5.8-14.3,1.5-.9.7-1.3,3.6-1.3,8.6,0,8.8,2.3,14.8,7.1,18.4,9,6.9,10,8.1,10.8,14,.9,7.1,2.3,8.8,7,8.8,5,0,7.6-2.1,11.2-9.2,5.9-11.7,7.9-19.3,7.9-30.5,0-12-.4-12.4-9.7-12.1-3.2.1-11.6.4-18.7.5Z"/>
</svg>