<?xml version="1.0" encoding="UTF-8"?>
<svg id="Livello_1" data-name="Livello 1" xmlns="http://www.w3.org/2000/svg" viewBox="0 0 1494.85 1427.46">
  <defs>
    <style>
      .cls-1 {
        stroke-width: 0px;
      }
    </style>
  </defs>
  <path class="cls-1" d="m165.75,0c-.1.1-.18.21-.26.31-.48-.15-1.02-.24-1.61-.24-.89,0-1.65.2-2.3.53-.09,0-.17-.02-.26-.02-.46,0-.89.05-1.28.15-.39-.09-.81-.15-1.27-.15-.25,0-.49.03-.72.06-.26-.04-.53-.06-.81-.06-.14,0-.28.01-.41.02-.07-.2-.14-.4-.2-.6H0v1427.46h1494.85V0H165.75Zm34.55,96.97c0,.48-.09.87-.25,1.17.02-.81.01-1.61-.02-2.42.17.48.26.9.26,1.25Zm561.1,1139.2c-3.6,7.1-6.2,9.2-11.2,9.2-4.7,0-6.1-1.7-7-8.8-.8-5.9-1.8-7.1-10.8-14-4.8-3.6-7.1-9.6-7.1-18.4,0-5,.4-7.9,1.3-8.6.8-.7,6.9-1.3,14.3-1.5,7.1-.1,15.5-.4,18.7-.5,3.2-.1,6.7.3,7.8.8,1.7,1,1.9,2.2,1.9,11.3,0,11.2-2,18.8-7.9,30.5Zm706.9-451.5c-1.1,7-2,14.2-2,16,0,4.6-7.5,44.7-10.7,56.7-.8,3-2.1,8.4-2.8,12-.8,3.6-2.8,11-4.5,16.5s-3.5,11.6-3.9,13.5c-1.7,7.1-7,21.3-8.5,22.9-1.3,1.2-4.8,1.7-16.9,2.2-8.8.4-17.9,1.4-21.7,2.3-17.7,4.6-37.6,12.9-49.8,20.9-3.7,2.4-8.5,5.4-10.6,6.7-2.2,1.3-6.6,4.6-9.8,7.2-7.9,6.6-9.3,7-18,5.2-6-1.3-8.8-1.4-15.8-.5-4.7.6-10.3,1.8-12.5,2.6s-5,1.4-6.1,1.5c-2.3,0-16.6,5.6-23.2,8.9-2.1,1.1-7.8,2.4-12.8,3-4.9.6-13.2,1.5-18.4,2.1-12.8,1.5-16.3,2.3-16.8,3.7-.8,2.7,5.5,3.3,36.1,3.4,17.2,0,41.8.5,54.7,1,12.9.5,42.6,1.5,65.9,2.2,38.4,1.1,42.5,1.4,43.5,2.9.9,1.4-.1,4-4.7,13-8.9,17.3-17.2,31.7-31.2,53.8-10.2,16.1-26.3,38.8-37,52-2.5,3-6.6,8.2-9.2,11.4-8.1,10.1-26.3,30.7-34.3,39.1-4.2,4.4-9.7,10.1-12.1,12.6-16,16.8-55.5,51-79.9,69-20,14.9-54.1,36.9-78,50.4-16.5,9.4-61.1,31.4-69,34.1-1.9.6-8.4,3.3-14.5,5.9-11.3,4.8-12.3,5.2-33,12.4-23.6,8.4-50.9,16.5-60.1,18-2.8.5-6,1.3-7,1.8-1.1.5-4.6,1.6-7.9,2.3s-9.3,2.1-13.4,3.1c-4.1,1.1-8.9,1.9-10.7,1.9-1.7,0-4.9.6-7.1,1.4-2.2.8-7.1,1.7-10.9,2.1-3.8.4-9.8,1.4-13.4,2.2-9.4,2.1-14.5,2.6-17.3,1.9-4.3-1-5-7.1-5-45.6-.1-37.7.9-48.3,5.9-62.6l2.5-7.2-2-7.6c-1.1-4.1-3.5-10.8-5.4-14.8-7-14.7-8.8-19.3-9.4-23.3-.5-3.7-.2-4.4,3.3-7.8,2.2-2.1,10.4-8.1,18.3-13.4,8-5.3,18.6-12.8,23.5-16.7,12.4-9.8,20.1-14.4,26.4-15.6,5.9-1.1,5.7-1.1,33.1,5,7.8,1.8,21.8.9,26.2-1.6,2.2-1.2,5.8-5.6,10.1-11.9,12.3-18.4,16.1-20.7,50.5-30.5,8.2-2.3,16.5-6.6,21.7-11.2,3.3-2.8,6-7.1,11.6-18.4,6.4-13,8-15.5,13.9-21.1l6.6-6.3v-9.7c-.1-10.7.4-9.1-10.2-29.8-2.3-4.4-5.8-12.5-7.8-18-7.3-19.6-12.1-26.5-24-35-7.4-5.3-20.4-11.5-31-14.9-7.4-2.4-9.5-2.6-26-2.6-19.1,0-19.5.1-41,6.7-4.4,1.3-15,6.1-23.5,10.6-35,18.5-37.4,19.1-50,12.9-4.9-2.4-5.5-3.1-5.8-6.2-.2-1.9.1-5.9.8-8.9,2.1-9.3,8-13.8,28.5-21.7,18.6-7,19.9-9.9,12.1-26.5-2.4-5.2-4.6-10.9-4.8-12.8-.7-4.7.8-32.6,2.7-52.1,2.3-23,3-56.1,1.5-68.5-1.2-10.5-4.2-21.3-6.9-25.5-.9-1.4-2.3-3.8-3.1-5.5-1.9-3.8-11.7-13.6-17.2-17.2-11.8-7.7-19.1-13.8-21.6-18.1-3.9-6.6-8.7-11.8-12.5-13.3-4.8-1.9-12.8-7.3-15.9-10.5-2.9-3.2-4.1-6.9-6.3-19-1.6-8.8-8.2-28.9-12.1-36.6-7.8-15.5-22.6-29-38-34.6-22.2-8.1-52.8-5.7-82.6,6.4-6.2,2.6-13.5,5.5-16.3,6.6-8.4,3.3-8.6,4.8-.7,5.8,7,.8,6.6,2.7-2.3,9.6-12,9.3-18.6,14-22.5,16-1.9,1-5.5,3.1-8,4.5-5.2,3.1-20.6,11.5-29.6,16.1-4.3,2.2-6.9,2.9-8.7,2.4-3.4-.8-11.8-12.7-36.5-51.6-12.2-19.2-16.9-25.1-21.3-26.8-5.1-1.9-10.9-.2-16.4,4.9-8.1,7.5-7,15.3,3.6,27.5,3,3.4,9,11,13.3,17s9.9,13.6,12.3,16.9c8.3,11.5,19.9,28.6,25.7,38.2,5.5,9.3,5.1,10.3-5.9,13-8.4,2.1-11.3,2.2-42.3,2.3-34.4,0-36.6.2-42,4.3-1.9,1.5.5,3.7,4.2,3.7,3.1,0,6.5,1.5,5.6,2.4-.3.2-4.8,2.1-10,4.1-9.7,3.9-20.1,9.4-32.1,17.1-6.2,3.9-12.9,9.5-32.3,26.8-10,8.9-16.2,17.6-12.6,17.6.6,0,7.9-5.1,16.3-11.3,16-11.9,26.9-19.3,32.7-22.2,1.9-1,4.2-2.4,5.1-3.1,2.6-2.3,27.8-14.5,36.4-17.6,14.3-5.2,27-7.7,69-13.4,20.2-2.8,20.7-2.8,23.7-.5,4.3,3.4,17,23,16.3,25.2-.4,1.1-3.7,4.3-7.3,7.3-11.7,9.3-22.2,24.3-27.4,39-4.6,12.9-6,30-3.7,43.4,2,11.1-2,29.4-11,51.2-9.7,23.4-11.9,32.5-9.3,39,2.1,5.4,8.9,11.6,17.4,15.7,4.6,2.3,9.4,4.4,10.8,4.8,4.8,1.4,15.6,7.3,20.5,11.2,3.5,2.8,6,6,8.4,10.7,4.4,8.8,3.8,10.1-7.1,15.7-4.5,2.4-9.7,5.7-11.5,7.2-3,2.6-3.3,3.5-3.3,8.3,0,7.3-1.5,8-10.6,5.3-15.1-4.5-26.8-6.6-50.4-9-11.9-1.2-42.3-.7-57.8.9-9.9,1-12.2,2.5-17.4,10.8-16.1,26-21.7,68.2-13.3,100.9,2.9,11.5,1.9,10.5,22.3,21.7,8.7,4.8,20.5,8.8,26.2,8.8,6.2,0,8.4,1.9,12.5,10.5,4,8.5,11.8,17.2,18.2,20.4,6,3,19,7.1,22.7,7.1,4.2,0,5.1.7,8.4,7,6.5,12.3,17,13.3,31.7,3,13.3-9.3,17.2-11.2,24.1-11.8,7.8-.6,11.3.8,22.9,8.8,8.3,5.7,12.3,7.6,18.7,9,4.7.9,6.7,3.4,11.3,13.9,2.5,5.7,3.5,9.1,3,10.8-.3,1.4-3.5,6.1-7,10.4-9.7,11.9-10.5,13.9-10.5,26.2,0,7.4.8,14.1,2.6,22.8,2.5,11.9,2.6,13.3,2,34.4-.4,12.1-1.1,25.8-1.6,30.5-.6,4.7-1.3,12.5-1.6,17.5-.4,4.9-1.1,9.6-1.7,10.3-1.3,1.6-6.2,1.5-14.2-.3-3.6-.9-9.6-2-13.3-2.5-29.3-3.9-79.4-17.1-120.7-31.8-9.3-3.3-21-7.7-26-9.7-9.3-3.8-11.3-4.6-20.5-8.8-3-1.3-10.4-4.6-16.5-7.2-6-2.7-12.1-5.6-13.5-6.5-1.4-.9-7.4-4-13.5-7-6-2.9-11.6-5.8-12.4-6.4-.7-.6-5.5-3.4-10.6-6.1-13-7-28-16.2-29.4-17.9-2.2-2.6-.2-3.6,7.3-3.6,13.2,0,31.4-4.9,40.6-10.9,5.1-3.4,6-3.6,14.5-3.9,13-.4,18.7-2.5,25.6-9.4l5.6-5.7,13.4-.6c7.4-.3,15.8-1.1,18.7-1.7,5.9-1.1,14.2-4.4,14.2-5.7,0-1.5-8.8-2.1-28.7-2.1s-41.3-1.2-61-3.5c-6.7-.8-15.7-1.5-20-1.5s-16.3-.6-26.8-1.4c-10.4-.9-25.7-2-34-2.6-8.2-.5-22.6-1.7-31.9-2.5l-16.9-1.4-3.6-3.4c-2-1.9-4.9-4.4-6.6-5.6-1.6-1.3-9.8-8.9-18.1-16.9-8.3-8.1-16.5-15.9-18.2-17.5-5.5-4.7-3.4-7.7,5.4-7.7,2.6,0,7.5-.4,10.8-.9,3.4-.6,14.2-1.5,24.1-2.1,9.9-.6,20.7-1.3,24-1.6,3.3-.3,11-.9,17-1.4,6.1-.5,19.6-1,30-1,17.2,0,24.8-.9,20.5-2.4-12.3-4.2-28.5-5.6-65.4-5.6-18.8,0-35.1-.3-36.3-.6-1.6-.5-2.4-1.6-2.9-4.3-2.2-12-10.5-20.6-27.4-28.4-10.5-4.8-28.5-7.9-40.2-7l-6.7.6-4.3-4.8c-2.4-2.6-7-6.8-10.3-9.3-11.9-9-16.7-15-33-41-3.4-5.4-7.7-12.2-9.7-15.2-1.9-3-5-8.4-6.8-12-1.8-3.6-3.8-7.2-4.5-8-4.3-4.9-25.9-50.2-35.1-73.5-3-7.7-6.6-16.7-8-20-1.3-3.3-2.4-6.7-2.4-7.5-.1-.8-.9-3.3-2-5.5s-1.9-4.8-2-5.7c0-1-.6-3.2-1.4-5-3-6.9-6.7-19.4-12.5-42.8-4.9-19.4-10.9-49.1-12.1-60.6-.5-4.5-1.6-12.1-2.5-16.9-.8-4.8-1.5-11.5-1.5-15s-.7-13.3-1.6-22.1c-1.3-12.9-1.5-22.9-1-52.4.3-20.1,1-40.7,1.4-45.9,1-11.5,2-12.7,12-13.5,3.7-.4,11-1.3,16.2-2.1,5.2-.9,11-1.5,12.8-1.5,8.3,0,9.3-4.2,2.7-11.7-2.5-2.8-4.5-5.8-4.5-6.7,0-1.8,6.3-5,22.5-11.6,11.8-4.9,15.4-6.4,21.8-9.6,6.6-3.3,10.8-3.1,16.3.6,7.6,5.3,24.5,12.7,34.9,15.4,13.9,3.6,27.8,3.6,37.9.1,9.1-3.3,18-9.3,23.3-16,3.8-4.6,5-5.4,10.5-6.8,13.1-3.4,17.5-3.9,58.1-6.7,7.1-.5,31.2-.9,53.5-1,38-.2,48.2-.8,48.2-2.9,0-1.8-3-2.2-42-6.1-5.8-.6-15.4-1.8-21.5-2.6-6-.8-17.3-2.1-25-2.8-16.1-1.5-18-2.3-26.9-10.5-12.7-11.8-27.5-20.2-40.5-22.8-6.3-1.3-8.5-1.4-14.5-.3-7.8,1.4-12.2,3.8-20.9,11.4l-5.8,5.1-12.7,2.2c-7,1.2-16.6,2.2-21.3,2.2-8.1.1-8.7-.1-11.1-2.7-2.9-3-3.4-4.8-4.7-17.5-1.2-10-7.1-29.3-10.9-35.3-10.7-17.1-22.8-27-39.8-32.8-3.8-1.2-9.3-2.6-12.3-3-7.9-1-9.4-2-8.6-5.9.4-1.8,1.5-5,2.5-7.2s4.4-9.6,7.5-16.5c7-15.3,22.6-45.6,27.1-52.8,1.9-2.9,3.4-5.4,3.4-5.7,0-2.4,28.5-45.4,41.4-62.4,3.9-5.2,8.9-11.8,11.1-14.7,9.8-13.1,34.2-40.7,52.1-59.1l11-11.3h5.7c4.9,0,6.1-.4,9.1-3.1,2-1.7,4.3-2.9,5.3-2.7,2.2.4,8.3,10.5,8.3,13.8,0,1.4.5,4.1,1,6,.6,1.9,1.5,9.5,2,16.8,1,13,1.5,14.8,6,23.2,1.8,3.3,1.8,3.9.5,8.3-.8,2.7-2.5,6.2-3.9,7.8-1.3,1.5-2.9,4.4-3.6,6.3-.7,2.3-7,9.4-19.1,21.6-10,10.2-17.9,19-17.9,20,0,5.8,10.4,6.8,21.6,2.1,3.8-1.6,8.4-3.5,10.3-4.2,1.9-.7,5.7-3.3,8.4-5.7,5.5-4.9,6.6-4.6,7.6,1.5.9,5.3,3.3,5.4,6.7.4,1.5-2.3,3.4-4.1,4.4-4.1,2.3,0,5.4-3.6,7.9-9.4,2.8-6.4,6.7-11.6,8.8-11.6,2.5,0,9,7.4,12.3,14.1,1.7,3.3,4.4,10.1,6.1,15.2,1.7,5.5,4.1,10.7,5.8,12.8,2.8,3.2,3,3.3,4.7,1.7,1.7-1.7,1.7-1.9-.7-6-2.1-3.7-2.4-5.4-2.2-12.8.1-7.3-.2-9.1-2.2-12.5-4.7-8.2-6-15.5-5.7-34,.3-19.8-.9-29.8-4.3-37.2-2.1-4.6-3.1-5.6-7.7-7.7-5.8-2.6-12.9-9.4-14.6-14.1-1.3-3.4-3.7-17.6-4.7-27.5-.8-7.4-3.2-13.6-6.4-16.5q-2.2-1.9-5.8,0c-2,1.1-6.6,5-10.2,8.6-11.1,11-20.4,18.6-23.7,19.2-1.84.34-3.36.35-4.62.06,1.34-1.46,2.56-3.05,3.75-4.69,1.43-1.97,2.76-4.02,4.52-5.72,2.14-2.07,4.8-3.47,6.86-5.64,1.96-2.07,3.43-4.49,5.57-6.41.6-.54,1.24-1.04,1.88-1.52.86-.59,1.73-1.18,2.61-1.76,1.37-.85,2.78-1.63,4.18-2.4,6.11-3.32,12.33-6.43,18.5-9.64.5-.26.91-.56,1.25-.89,3.78-1.47,8.15-4.93,16.91-11.39,22.3-16.6,31.6-23.1,33.8-24,1-.4,5.7-3.2,10.4-6.3,34.2-22.7,85.2-48.5,128.5-65,6.1-2.3,13.8-5.3,17.2-6.6,3.4-1.3,6.7-2.4,7.3-2.4s3.2-.8,5.8-1.9c5.6-2.2,28.8-9.6,35.2-11.1,2.5-.6,7-1.7,10-2.5,3-.7,12.9-3.1,22-5.3,18.9-4.7,27.4-6.4,41.5-8.7,5.5-.9,12.3-2.1,15-2.6,14.6-2.6,60.1-7.4,78.5-8.2,16.8-.8,67.1-.5,81,.3,51.5,3.1,105,11.4,145.5,22.6,2.8.8,8.8,2.3,13.5,3.4,8,1.9,20.2,5.6,28,8.5,1.9.7,8.5,2.9,14.6,4.8,6,2,13.6,4.7,16.8,6.1,3.2,1.4,6.3,2.6,6.7,2.6,3.3,0,49.1,19.9,68.9,29.9,5.5,2.8,20.8,10.8,26.5,14,15.2,8.3,47.4,28.5,64.1,40.3,10.2,7.1,26.9,19.2,27.4,19.8.3.3,2.5,2.1,5,4,2.5,1.9,6.6,5.2,9.1,7.4,2.5,2.3,7.7,6.6,11.5,9.6,6.2,5,28,25.1,45.5,42,6.9,6.7,24.7,26,30.9,33.5,1.9,2.3,6.7,8,10.6,12.6,27.1,32.1,57.4,77.3,77.1,114.9,3.3,6.3,6.8,12.8,7.6,14.5,4.1,7.7,14.5,31.2,23.6,53.2,6,14.4,6.2,14.2-10.2,14-15.7-.1-28.1,2.2-39.9,7.6-11.2,5.2-18.2,10.3-28.3,20.9l-9,9.5-11.5.6c-6.3.4-15.5,1.6-20.5,2.7-4.9,1.1-21.4,4.5-36.5,7.6-31.7,6.3-31,6.1-31,7.9,0,.7.8,1.6,1.8,2,.9.4,21.5,1,45.8,1.4l44.1.6,3.5,3.1c3.5,3.1,4,3.2,15.8,3.9,6.6.4,31.3.4,54.9,0l42.7-.7,2.7,2.3c4.2,3.8,8.6,23.3,5.5,24.4-.7.2-8,1.1-16.3,1.9-57.3,5.9-63.4,6.7-74.7,9.9-8,2.3-11.3,3.6-11.3,4.7,0,1.3,6.9,1.6,53,2.3,41.5.7,53.3,1.1,54.3,2.1,1.3,1.3,2.6,8.3,5.2,28.6.6,4.7,1.5,11.4,2.1,15,4.6,31.1,4,110.9-1.1,143.3Zm-826-48.2c2.8,5.7,3.1,7,2,8.3-2.4,2.9-9,1.2-9-2.3,0-1-.8-2.9-1.8-4.2-1-1.3-2.9-4.7-4.4-7.4-3.1-6-2.6-8.2,2.9-11.9,4.4-3,4.7-3.1,6.6-1.2,1,1.1,1.3,2.9.9,6.6-.4,4.5,0,6.2,2.8,12.1Z"/>
</svg>