<svg xmlns="http://www.w3.org/2000/svg" version="1.1" xmlns:xlink="http://www.w3.org/1999/xlink" width="512" height="512" x="0" y="0" viewBox="0 0 512 512" xml:space="preserve"><g><path fill-rule="evenodd" d="M158.295 16h190.414c24.079 0 43.718 19.639 43.718 43.718v44.725c-4.598-4.599-11.147-7.072-17.831-6.374V60.831c0-14.877-12.123-27-27-27H159.409c-14.21 0-26.048 11.111-26.946 25.279h-17.878c.327-23.801 19.834-43.111 43.71-43.111zm113.546 263.126 24.171 41.866c3.68 6.375 1.476 14.602-4.899 18.283s-14.602 1.476-18.283-4.899l-27.578-47.767c8.863-2.489 17.698-5.099 26.588-7.483zM373.825 108.35c6.318-1.693 12.873 2.092 14.566 8.41l44.218 165.026c1.693 6.317-2.091 12.873-8.41 14.566-6.318 1.693-12.873-2.091-14.566-8.41l-44.219-165.026c-1.693-6.319 2.091-12.873 8.41-14.566zm-91.537 157.829-16.276-60.742c-15.786 4.786-31.934 8.346-47.871 12.616-16.211 4.344-25.921 21.161-21.284 38.466s21.454 27.014 37.665 22.671c15.938-4.271 31.702-9.262 47.766-13.01zm-6.76-63.817 16.538 61.721c43.196-8.346 79.029-2.45 103.151 8.692l-34.704-129.516c-15.32 21.71-43.404 44.733-84.986 59.103zm139.881-23.407 9.502 35.46 9.052-5.333c1.964-1.157 2.881-3.4 2.291-5.602l-5.554-20.726c-.59-2.202-2.506-3.686-4.785-3.706zm-300.832 104.02c-36.746 0-66.534 29.789-66.534 66.534s29.788 66.534 66.534 66.534 66.534-29.788 66.534-66.534-29.788-66.534-66.534-66.534zm2.611 100.644c-1.44 1.559-3.781 1.559-5.221 0-7.917-8.566-30.265-28.398-30.265-40.249 0-10.37 7.731-18.776 17.267-18.776 6.891 0 12.839 4.39 15.608 10.739 2.77-6.349 8.717-10.739 15.608-10.739 9.537 0 17.267 8.406 17.267 18.776 0 11.852-22.348 31.683-30.265 40.249zm356.315-34.979H343.266c-11.016 0-20 8.984-20 20v81.927c0 11.015 8.984 20 20 20h130.237c11.016 0 20-8.984 20-20V368.64c0-11.015-8.984-20-20-20zm-45.541 67.026-32.155 18.564c-4.68 2.702-10.5-.657-10.5-6.062v-37.129c0-5.404 5.82-8.764 10.5-6.062l32.155 18.564c4.681 2.702 4.681 9.422 0 12.124zM185.382 69.11H39.095C25 69.11 13.503 80.607 13.503 94.702v74.394c0 14.095 11.497 25.592 25.592 25.592h75.602l40.861 33.605c3.268 2.688 8.176.369 8.176-3.862v-29.743h21.648c14.095 0 25.592-11.496 25.592-25.592V94.702c0-14.096-11.496-25.592-25.592-25.592zm-70.685 95.947H50.11a5 5 0 0 1 0-10h64.587a5 5 0 0 1 0 10zm59.669-28.158H50.11a5 5 0 0 1 0-10h124.256a5 5 0 0 1 0 10zm0-28.158H50.11a5 5 0 0 1 0-10h124.256a5 5 0 0 1 0 10zm218.062 173.76c-5.884-2.717-11.589-4.926-17.831-6.723v62.861h17.831zm61.532-52.376a4.987 4.987 0 1 1 5-8.632l28.457 16.43a4.987 4.987 0 1 1-5 8.632zm-12.609-74.333 16.43-28.458a4.978 4.978 0 1 0-8.633-4.961l-16.43 28.458a4.978 4.978 0 1 0 8.633 4.961zm21.7 34.569a4.995 4.995 0 0 1-2.579-9.648l31.74-8.505a4.993 4.993 0 1 1 2.578 9.648l-31.74 8.505zm-348.474 82.614v-65.438l17.831 14.665v52.866a76.703 76.703 0 0 0-17.831-2.094zm233.02-229.144H159.409c-8.696 0-16.036 6.643-16.913 15.279h42.886c19.615 0 35.591 15.977 35.591 35.592v74.394c0 19.615-15.977 35.592-35.591 35.592h-11.648v19.744c0 12.654-14.754 19.622-24.527 11.585l-6.797-5.59v47.77c28.506 11.134 48.703 38.866 48.703 71.313s-20.197 60.179-48.703 71.313v7.144c0 9.357 7.643 17 17 17h153.857v-76.326c0-16.535 13.465-30 30-30h21.331v-65.318c-23.203-4.767-48.222-3.75-70.633.58a263.678 263.678 0 0 0-12.063 2.648l22.772 39.442c6.431 11.139 2.58 25.511-8.559 31.943-11.139 6.431-25.511 2.58-31.943-8.559L235.26 289.3c-21.476 4.697-42.372-8.959-48.061-30.192-5.878-21.936 6.161-44.766 28.355-50.713 18.918-5.069 38.174-9.078 56.708-15.483 36.747-12.699 62.518-30.527 84.884-62.222l-1.389-5.185c-2.456-9.168 1.393-18.647 8.84-23.756V60.831c0-9.357-7.643-17-17-17zm-4.331 436.734c-15.04 0-27.539-11.142-29.676-25.6H159.409c-14.877 0-27-12.123-27-27v-4.016a76.703 76.703 0 0 1-17.831 2.094v26.239c0 24.079 19.639 43.718 43.718 43.718H348.71c13.309 0 25.259-6.002 33.289-15.434h-38.733zm-65.545-2.583h-41.439a5 5 0 0 1 0-10h41.439a5 5 0 0 1 0 10z" fill="#000000" opacity="1" data-original="#000000"></path></g></svg>