<svg xmlns="http://www.w3.org/2000/svg" version="1.1" xmlns:xlink="http://www.w3.org/1999/xlink" width="512" height="512" x="0" y="0" viewBox="0 0 512 512" xml:space="preserve"><g><path d="m117.671 159.434 16.89-8.877 16.889 8.877-3.222-18.809 13.652-13.301-18.882-2.754-8.437-17.109-8.453 17.109-18.881 2.74 13.667 13.315z" fill="#000000" opacity="1" data-original="#000000"></path><path d="M135 270c74.443 0 135-60.557 135-135S209.443 0 135 0 0 60.557 0 135s60.557 135 135 135zM106.187 97.148l28.374-57.451 28.359 57.451 63.442 9.229-45.908 44.736 10.84 63.164-56.733-29.824-56.733 29.824 10.84-63.164-45.894-44.722zM481 211v-75c0-41.353-33.647-75-75-75h-49.102l34.395-34.395-21.211-21.21L299.477 76l70.605 70.605 21.211-21.211L356.898 91H406c24.814 0 45 20.186 45 45v75zM512 301h-32.701c1.8-4.799 2.701-9.6 2.701-15 0-24.901-20.099-45-45-45-24.6 0-46.5 12.001-60 30.3-13.5-18.3-35.4-30.3-60-30.3-24.901 0-45 20.099-45 45 0 5.4.901 10.201 2.701 15H242v91h120v-61h30v61h120zm-195 0c-8.401 0-15-6.599-15-15s6.599-15 15-15c19.501 0 36.301 12.599 42.299 30zm77.701 0c5.999-17.401 22.798-30 42.299-30 8.401 0 15 6.599 15 15s-6.599 15-15 15zM272 422h90v90h-90zM392 422h90v90h-90zM150.707 386.605 185.102 421H106c-24.814 0-45-20.186-45-45v-75H31v75c0 41.353 33.647 75 75 75h79.102l-34.395 34.395 21.211 21.211L242.523 436l-70.605-70.605z" fill="#000000" opacity="1" data-original="#000000"></path></g></svg>